<?xml version="1.0" encoding="UTF-8" standalone="no"?>
<svg
   xmlns:dc="http://purl.org/dc/elements/1.1/"
   xmlns:cc="http://creativecommons.org/ns#"
   xmlns:rdf="http://www.w3.org/1999/02/22-rdf-syntax-ns#"
   xmlns:svg="http://www.w3.org/2000/svg"
   xmlns="http://www.w3.org/2000/svg"
   viewBox="0 0 861.82666 284.01334"
   height="284.01334"
   width="861.82666"
   xml:space="preserve"
   id="svg2"
   version="1.1"><metadata
     id="metadata8"><rdf:RDF><cc:Work
         rdf:about=""><dc:format>image/svg+xml</dc:format><dc:type
           rdf:resource="http://purl.org/dc/dcmitype/StillImage" /></cc:Work></rdf:RDF></metadata><defs
     id="defs6" /><g
     transform="matrix(1.3333333,0,0,-1.3333333,0,284.01333)"
     id="g10"><g
       transform="scale(0.1)"
       id="g12"><path
         id="path14"
         style="fill:#18468b;fill-opacity:1;fill-rule:nonzero;stroke:none"
         d="M 0,0 H 6463.7 V 2130.15 H 0 Z" /><path
         id="path16"
         style="fill:#ffffff;fill-opacity:1;fill-rule:nonzero;stroke:none"
         d="m 594.055,929.191 h 87.781 c 108.582,0 221.988,15.989 221.988,129.339 0,121.36 -116.594,132.51 -218.769,132.51 h -91 z m 0,463.059 h 83.019 c 97.375,0 197.977,23.96 197.977,118.16 0,102.16 -95.813,111.77 -194.805,111.77 h -86.191 z m -296.989,440.69 h 512.52 c 207.574,0 362.454,-91.02 362.454,-282.63 0,-140.5 -71.83,-218.75 -196.372,-260.25 v -3.19 c 148.472,-30.34 225.122,-110.19 225.122,-245.91 0,-266.64 -234.72,-322.53 -434.333,-322.53 H 297.066 v 1114.51" /><path
         id="path18"
         style="fill:#ffffff;fill-opacity:1;fill-rule:nonzero;stroke:none"
         d="m 2215.28,1141.55 c 0,-304.948 -197.98,-442.249 -488.57,-442.249 -290.62,0 -488.6,137.301 -488.6,442.249 v 691.39 h 296.99 v -641.9 c 0,-146.9 39.9,-271.431 191.61,-271.431 151.66,0 191.59,124.531 191.59,271.431 v 641.9 h 296.98 v -691.39" /><path
         id="path20"
         style="fill:#ffffff;fill-opacity:1;fill-rule:nonzero;stroke:none"
         d="m 2572.3,1369.88 h 78.21 c 95.81,0 217.18,3.21 217.18,129.33 0,103.8 -103.77,122.97 -217.18,122.97 h -78.21 z m -297.03,463.06 h 530.14 c 197.97,0 359.24,-89.42 359.24,-281.02 0,-148.51 -70.26,-247.5 -213.94,-281.03 v -3.19 c 95.81,-25.55 102.17,-110.17 158.1,-245.91 l 108.56,-303.36 h -309.8 l -63.84,201.179 c -60.69,191.581 -99,239.501 -209.19,239.501 H 2572.3 V 718.43 h -297.03 v 1114.51" /><path
         id="path22"
         style="fill:#ffffff;fill-opacity:1;fill-rule:nonzero;stroke:none"
         d="M 3462.02,1612.57 H 3187.4 v 220.37 h 846.27 V 1612.57 H 3759 V 718.43 h -296.98 v 894.14" /><path
         id="path24"
         style="fill:#ffffff;fill-opacity:1;fill-rule:nonzero;stroke:none"
         d="m 4536.7,919.609 c 180.42,0 252.28,172.451 252.28,356.071 0,193.2 -71.86,356.07 -252.28,356.07 -180.44,0 -252.28,-162.87 -252.28,-356.07 0,-183.62 71.84,-356.071 252.28,-356.071 z m 0,932.491 c 367.23,0 558.82,-218.76 558.82,-576.42 0,-354.45 -194.81,-576.379 -558.82,-576.379 -364.04,0 -558.85,221.929 -558.85,576.379 0,357.66 191.59,576.42 558.85,576.42" /><path
         id="path26"
         style="fill:#ffffff;fill-opacity:1;fill-rule:nonzero;stroke:none"
         d="m 5142.81,1832.94 h 378.4 l 376.85,-756.86 h 3.21 l -4.81,756.86 h 271.42 V 718.43 h -368.82 l -389.58,761.64 h -3.22 l 9.62,-761.64 h -273.07 v 1114.51" /><path
         id="path28"
         style="fill:#ffffff;fill-opacity:1;fill-rule:nonzero;stroke:none"
         d="m 533.195,258.281 c -20.711,-5.429 -43.761,-11.73 -80.906,-11.73 -72.695,0 -156.746,39.488 -156.746,150.461 0,102.168 66.461,153.008 156.352,153.008 27.789,0 54.738,-6.731 80.937,-15.141 l -5.875,-63.481 c -23.445,13.903 -46.125,20.622 -71.133,20.622 -51.621,0 -85.215,-40.36 -85.215,-95.008 0,-57.571 37.891,-92.473 91.067,-92.473 23.828,0 48.074,6.742 68.035,15.16 l 3.484,-61.418" /><path
         id="path30"
         style="fill:#ffffff;fill-opacity:1;fill-rule:nonzero;stroke:none"
         d="m 568.813,470.57 h 70.343 V 251.59 h -70.343 z m 70.343,35.75 h -70.343 v 55.481 h 70.343 V 506.32" /><path
         id="path32"
         style="fill:#ffffff;fill-opacity:1;fill-rule:nonzero;stroke:none"
         d="m 670.813,470.57 h 75.429 l 42.235,-155.941 h 0.812 l 42.602,155.941 h 69.957 L 826.402,251.59 h -80.16 l -75.429,218.98" /><path
         id="path34"
         style="fill:#ffffff;fill-opacity:1;fill-rule:nonzero;stroke:none"
         d="m 933.535,470.57 h 70.335 V 251.59 h -70.335 z m 70.335,35.75 h -70.335 v 55.481 h 70.335 V 506.32" /><path
         id="path36"
         style="fill:#ffffff;fill-opacity:1;fill-rule:nonzero;stroke:none"
         d="m 1061.75,251.59 h 70.3398 V 566.84 H 1061.75 Z" /><path
         id="path38"
         style="fill:#ffffff;fill-opacity:1;fill-rule:nonzero;stroke:none"
         d="m 1300.6,544.949 h 192.32 V 489.512 H 1373.28 V 428.98 h 112.99 V 373.5 h -112.99 v -66.441 h 123.93 V 251.59 H 1300.6 v 293.359" /><path
         id="path40"
         style="fill:#ffffff;fill-opacity:1;fill-rule:nonzero;stroke:none"
         d="m 1535.52,470.57 h 64.12 v -40.359 h 0.78 c 14.06,31.57 42.2,45.43 74.25,45.43 55.52,0 77.79,-42.051 77.79,-87.45 V 251.59 h -70.36 v 105.922 c 0,41.187 -13.28,55.047 -32.43,55.047 -28.92,0 -43.8,-21.418 -43.8,-68.508 V 251.59 h -70.35 v 218.98" /><path
         id="path42"
         style="fill:#ffffff;fill-opacity:1;fill-rule:nonzero;stroke:none"
         d="m 1896.71,309.59 c 25.02,0 44.95,22.68 44.95,56.34 0,24.379 -13.26,51.672 -44.95,51.672 -26.17,0 -39.85,-24.801 -39.85,-54.653 0,-34.027 18.74,-53.359 39.85,-53.359 z m 112.97,-32.371 c 0,-89.938 -40.64,-118.949 -122.72,-118.949 -33.63,0 -61.39,7.55 -77.82,13.851 l 3.52,59.699 c 21.49,-11.351 39.49,-18.082 68.81,-18.082 40.66,0 62.53,20.602 62.53,63.481 V 289 h -0.78 c -16.78,-25.68 -40.24,-37.41 -68.4,-37.41 -55.9,0 -90.7,45.371 -90.7,110.129 0,65.14 28.54,113.922 91.88,113.922 30.09,0 54.34,-17.711 69.21,-44.571 h 0.78 v 39.5 h 63.69 V 277.219" /><path
         id="path44"
         style="fill:#ffffff;fill-opacity:1;fill-rule:nonzero;stroke:none"
         d="m 2060.92,470.57 h 70.36 V 251.59 h -70.36 z m 70.36,35.75 h -70.36 v 55.481 h 70.36 V 506.32" /><path
         id="path46"
         style="fill:#ffffff;fill-opacity:1;fill-rule:nonzero;stroke:none"
         d="m 2180.94,470.57 h 64.09 v -40.359 h 0.78 c 14.06,31.57 42.2,45.43 74.25,45.43 55.52,0 77.79,-42.051 77.79,-87.45 V 251.59 h -70.33 v 105.922 c 0,41.187 -13.31,55.047 -32.46,55.047 -28.92,0 -43.8,-21.418 -43.8,-68.508 V 251.59 h -70.32 v 218.98" /><path
         id="path48"
         style="fill:#ffffff;fill-opacity:1;fill-rule:nonzero;stroke:none"
         d="m 2578.1,381.891 c 0,25.23 -10.95,45.8 -39.12,45.8 -25.39,0 -37.52,-20.57 -39.08,-45.8 z m -77.41,-42.879 c 3.9,-30.25 25.4,-42.051 59.81,-42.051 19.16,0 41.04,4.641 62.17,16.84 v -53.403 c -22.68,-9.668 -48.47,-13.847 -74.67,-13.847 -67.24,0 -118.46,42.449 -118.46,114.738 0,72.301 45.75,114.352 109.07,114.352 75.44,0 102.83,-57.61 102.83,-122.782 v -13.847 h -140.75" /><path
         id="path50"
         style="fill:#ffffff;fill-opacity:1;fill-rule:nonzero;stroke:none"
         d="m 2814.59,381.891 c 0,25.23 -10.94,45.8 -39.1,45.8 -25.39,0 -37.53,-20.57 -39.08,-45.8 z m -77.4,-42.879 c 3.89,-30.25 25.42,-42.051 59.82,-42.051 19.14,0 41.05,4.641 62.15,16.84 v -53.403 c -22.67,-9.668 -48.47,-13.847 -74.67,-13.847 -67.23,0 -118.44,42.449 -118.44,114.738 0,72.301 45.75,114.352 109.06,114.352 75.45,0 102.84,-57.61 102.84,-122.782 v -13.847 h -140.76" /><path
         id="path52"
         style="fill:#ffffff;fill-opacity:1;fill-rule:nonzero;stroke:none"
         d="m 3057.75,410.039 c -7.83,2.52 -15.62,2.52 -23.86,2.52 -32.82,0 -51.19,-25.598 -51.19,-68.508 V 251.59 h -70.36 v 218.98 h 64.09 v -40.359 h 0.78 c 12.14,27.719 29.73,45.43 60.21,45.43 8.19,0 16.8,-1.262 23.84,-2.52 l -3.51,-63.082" /><path
         id="path54"
         style="fill:#ffffff;fill-opacity:1;fill-rule:nonzero;stroke:none"
         d="m 3091.78,470.57 h 70.32 V 251.59 h -70.32 z m 70.32,35.75 h -70.32 v 55.481 h 70.32 V 506.32" /><path
         id="path56"
         style="fill:#ffffff;fill-opacity:1;fill-rule:nonzero;stroke:none"
         d="m 3211.76,470.57 h 64.11 v -40.359 h 0.8 c 14.06,31.57 42.18,45.43 74.25,45.43 55.52,0 77.77,-42.051 77.77,-87.45 V 251.59 h -70.34 v 105.922 c 0,41.187 -13.3,55.047 -32.43,55.047 -28.93,0 -43.82,-21.418 -43.82,-68.508 V 251.59 h -70.34 v 218.98" /><path
         id="path58"
         style="fill:#ffffff;fill-opacity:1;fill-rule:nonzero;stroke:none"
         d="m 3572.96,309.59 c 25,0 44.93,22.68 44.93,56.34 0,24.379 -13.23,51.672 -44.93,51.672 -26.2,0 -39.9,-24.801 -39.9,-54.653 0,-34.027 18.81,-53.359 39.9,-53.359 z m 112.95,-32.371 c 0,-89.938 -40.66,-118.949 -122.71,-118.949 -33.62,0 -61.38,7.55 -77.83,13.851 l 3.55,59.699 c 21.49,-11.351 39.46,-18.082 68.78,-18.082 40.66,0 62.54,20.602 62.54,63.481 V 289 h -0.79 c -16.78,-25.68 -40.23,-37.41 -68.39,-37.41 -55.91,0 -90.7,45.371 -90.7,110.129 0,65.14 28.56,113.922 91.84,113.922 30.13,0 54.38,-17.711 69.24,-44.571 h 0.8 v 39.5 h 63.67 V 277.219" /><path
         id="path60"
         style="fill:#ffffff;fill-opacity:1;fill-rule:nonzero;stroke:none"
         d="m 4077.25,258.281 c -20.7,-5.429 -43.78,-11.73 -80.92,-11.73 -72.74,0 -156.77,39.488 -156.77,150.461 0,102.168 66.47,153.008 156.37,153.008 27.75,0 54.75,-6.731 80.92,-15.141 l -5.87,-63.481 c -23.45,13.903 -46.1,20.622 -71.14,20.622 -51.6,0 -85.23,-40.36 -85.23,-95.008 0,-57.571 37.91,-92.473 91.13,-92.473 23.82,0 48.06,6.742 67.99,15.16 l 3.52,-61.418" /><path
         id="path62"
         style="fill:#ffffff;fill-opacity:1;fill-rule:nonzero;stroke:none"
         d="m 4259.01,360.891 c 0,32.769 -13.33,61.75 -45.76,61.75 -32.43,0 -45.73,-28.981 -45.73,-61.75 0,-32.36 13.3,-61.379 45.73,-61.379 32.43,0 45.76,29.019 45.76,61.379 z m -164.21,0 c 0,72.699 51.26,114.75 118.45,114.75 67.26,0 118.47,-42.051 118.47,-114.75 0,-72.332 -51.21,-114.34 -118.47,-114.34 -67.19,0 -118.45,42.008 -118.45,114.34" /><path
         id="path64"
         style="fill:#ffffff;fill-opacity:1;fill-rule:nonzero;stroke:none"
         d="m 4363.39,470.57 h 64.1 v -40.359 h 0.8 c 14.06,31.57 42.22,45.43 74.29,45.43 55.52,0 77.76,-42.051 77.76,-87.45 V 251.59 h -70.33 v 105.922 c 0,41.187 -13.34,55.047 -32.47,55.047 -28.92,0 -43.78,-21.418 -43.78,-68.508 V 251.59 h -70.37 v 218.98" /><path
         id="path66"
         style="fill:#ffffff;fill-opacity:1;fill-rule:nonzero;stroke:none"
         d="m 4603.79,470.57 h 41.43 v 49.18 l 69.24,23.141 V 470.57 h 49.22 v -52.968 h -49.22 v -80.723 c 0,-26.469 5.84,-39.918 28.13,-39.918 7.03,0 14.49,1.719 21.48,2.969 l 2.36,-49.2 c -13.29,-1.66 -26.57,-4.179 -44.17,-4.179 -62.95,0 -78.21,29.84 -78.21,81.98 v 89.071 h -40.26 v 52.968" /><path
         id="path68"
         style="fill:#ffffff;fill-opacity:1;fill-rule:nonzero;stroke:none"
         d="m 4938.42,410.039 c -7.82,2.52 -15.62,2.52 -23.85,2.52 -32.79,0 -51.2,-25.598 -51.2,-68.508 V 251.59 h -70.34 v 218.98 h 64.1 v -40.359 h 0.77 c 12.13,27.719 29.71,45.43 60.19,45.43 8.23,0 16.81,-1.262 23.87,-2.52 l -3.54,-63.082" /><path
         id="path70"
         style="fill:#ffffff;fill-opacity:1;fill-rule:nonzero;stroke:none"
         d="m 5049.05,296.961 c 26.57,0 43.38,26.059 43.38,51.73 -8.98,0.399 -19.13,1.25 -29.71,1.25 -23.84,0 -42.62,-7.98 -42.62,-29.011 0,-15.129 12.54,-23.969 28.95,-23.969 z m 48.46,-45.371 c -0.4,11.73 -1.56,23.109 -1.56,34.449 h -0.76 c -16.02,-27.328 -35.59,-39.488 -64.55,-39.488 -40.22,0 -76.21,21.418 -76.21,68.91 0,66.859 67.66,74.848 105.17,74.848 11.35,0 23.85,-1.289 32.83,-2.95 -0.36,29.852 -21.09,37.813 -46.52,37.813 -22.66,0 -45.31,-4.621 -64.87,-16.391 l -1.2,51.27 c 25,10.949 51.24,15.59 81.32,15.59 52,0 96.98,-23.981 96.98,-90.801 v -81.559 c 0,-17.242 0.76,-34.492 3.87,-51.691 h -64.5" /><path
         id="path72"
         style="fill:#ffffff;fill-opacity:1;fill-rule:nonzero;stroke:none"
         d="m 5360.23,407.949 c -12.93,8.391 -25.84,12.211 -42.64,12.211 -30.48,0 -53.93,-22.719 -53.93,-60.558 0,-34.891 27.36,-57.602 57.87,-57.602 16.02,0 32.07,3.801 43.77,10.539 l 1.57,-56.348 c -17.58,-6.293 -38.71,-9.64 -57.48,-9.64 -67.22,0 -118.46,42.008 -118.46,114.34 0,72.699 51.24,114.75 118.46,114.75 21.13,0 39.9,-3.813 55.91,-12.2 l -5.07,-55.492" /><path
         id="path74"
         style="fill:#ffffff;fill-opacity:1;fill-rule:nonzero;stroke:none"
         d="m 5375.82,470.57 h 41.46 v 49.18 l 69.2,23.141 V 470.57 h 49.25 v -52.968 h -49.25 v -80.723 c 0,-26.469 5.84,-39.918 28.13,-39.918 7.06,0 14.46,1.719 21.49,2.969 l 2.36,-49.2 c -13.3,-1.66 -26.57,-4.179 -44.14,-4.179 -62.98,0 -78.24,29.84 -78.24,81.98 v 89.071 h -40.26 v 52.968" /><path
         id="path76"
         style="fill:#ffffff;fill-opacity:1;fill-rule:nonzero;stroke:none"
         d="m 5719.46,360.891 c 0,32.769 -13.33,61.75 -45.76,61.75 -32.44,0 -45.73,-28.981 -45.73,-61.75 0,-32.36 13.29,-61.379 45.73,-61.379 32.43,0 45.76,29.019 45.76,61.379 z m -164.23,0 c 0,72.699 51.28,114.75 118.47,114.75 67.26,0 118.46,-42.051 118.46,-114.75 0,-72.332 -51.2,-114.34 -118.46,-114.34 -67.19,0 -118.47,42.008 -118.47,114.34" /><path
         id="path78"
         style="fill:#ffffff;fill-opacity:1;fill-rule:nonzero;stroke:none"
         d="m 5969.26,410.039 c -7.82,2.52 -15.62,2.52 -23.85,2.52 -32.83,0 -51.2,-25.598 -51.2,-68.508 V 251.59 h -70.37 v 218.98 h 64.1 v -40.359 h 0.8 c 12.1,27.719 29.71,45.43 60.19,45.43 8.19,0 16.78,-1.262 23.84,-2.52 l -3.51,-63.082" /><path
         id="path80"
         style="fill:#ffffff;fill-opacity:1;fill-rule:nonzero;stroke:none"
         d="m 5991.14,312.109 c 16.42,-7.57 40.63,-15.148 66.07,-15.148 14.46,0 28.52,2.551 28.52,17.668 0,36.98 -100.09,10.941 -100.09,89.973 0,50.437 46.13,71.039 86.82,71.039 24.21,0 48.86,-2.95 71.5,-12.641 l -5.43,-52.559 c -14.86,9.719 -37.18,14.731 -54.76,14.731 -15.25,0 -32.43,-2.922 -32.43,-15.133 0,-34.019 104.76,-7.129 104.76,-90.34 0,-58.429 -48.88,-73.148 -95.02,-73.148 -31.63,0 -53.12,3.347 -73.84,10.469 l 3.9,55.089" /></g></g></svg>