<?xml version="1.0" encoding="UTF-8"?> <svg xmlns="http://www.w3.org/2000/svg" width="277" height="90" viewBox="0 0 277 90" fill="none"><path d="M138.006 30.3091V14.789C138.006 7.50428 138.153 0 120.093 0C111.742 0 102.443 1.52048 100.869 10.3467C100.059 5.02621 96.4803 0 88.0921 0C78.6999 0 75.7863 5.46297 75.2026 5.90206C73.454 2.11372 69.086 0 65.0074 0C59.7638 0 55.5382 1.60222 52.6269 5.97447H52.4822V0.948254H38.5749V10.3467C35.82 3.32589 28.6387 0 20.4629 0C9.105 0 0 7.94104 0 19.89C0 31.8389 9.10267 39.7052 20.4629 39.7052C28.6574 39.7052 35.4862 35.9846 38.5702 29.1927V38.757H52.9888V18.2854C52.9888 14.3523 54.2285 11.5098 57.8681 11.5098C62.2362 11.5098 62.6004 14.7143 62.6004 18.2854V38.757H77.0213V18.2854C77.0213 14.3523 78.2587 11.5098 81.9007 11.5098C86.2711 11.5098 86.6353 14.7143 86.6353 18.2854V38.757H100.4C100.764 37.7386 100.981 36.2065 100.909 35.1882H101.056C103.444 38.2782 107.584 39.7029 112.227 39.7029C116.871 39.7029 121.33 38.6822 124.388 35.1882H124.535C124.461 36.2065 124.68 37.7386 125.044 38.757H139.755C138.153 36.3536 138.006 33.1492 138.006 30.3091ZM26.3625 23.6783C26.0707 26.6655 23.8855 29.216 20.7547 29.216C15.2194 29.216 14.4186 24.4794 14.4186 19.8923C14.4186 15.3052 15.2194 10.4939 20.7547 10.4939C22.2839 10.4939 23.5213 10.9306 24.3967 11.7317C25.3423 12.5328 25.8535 13.7707 25.9983 15.3029H38.5725V23.6807H26.3625V23.6783ZM124.171 25.2805C123.954 29.2137 121.405 31.1803 118.127 31.1803C115.505 31.1803 113.612 29.4332 113.612 27.6839C113.612 25.1334 115.286 24.3346 118.491 23.6059C120.457 23.1692 122.425 22.6577 124.171 21.7841V25.2805ZM120.24 15.3706C114.66 16.4216 105.261 16.4263 101.054 21.5856V12.8224C101.054 12.6753 101.054 12.5305 101.049 12.3857H114.051C114.125 10.7811 114.999 8.52494 119.439 8.52494C121.769 8.52494 124.171 9.4732 124.171 12.0213C124.171 14.427 122.205 15.0086 120.24 15.3706Z" fill="white"></path><path d="M16.0413 78.9972C13.2607 78.9972 10.8467 78.4086 8.80162 77.2338C6.75416 76.0567 5.17362 74.3984 4.06001 72.259C2.94407 70.1196 2.38843 67.5995 2.38843 64.6963C2.38843 61.7932 2.93706 59.2707 4.03667 57.1336C5.13627 54.9942 6.7098 53.3383 8.75726 52.1611C10.8024 50.984 13.2304 50.3954 16.0413 50.3954C19.3097 50.3954 22.0436 51.1989 24.2428 52.8034C26.442 54.408 27.9221 56.7506 28.6855 59.8383H24.2871C23.7362 57.8834 22.7743 56.4493 21.3992 55.5314C20.0241 54.6135 18.2381 54.1557 16.0389 54.1557C13.0763 54.1557 10.7767 55.0783 9.14247 56.9281C7.50824 58.7779 6.69112 61.3681 6.69112 64.6986C6.69112 68.0292 7.50824 70.5797 9.14247 72.4458C10.7767 74.3096 13.074 75.2415 16.0389 75.2415C20.6218 75.2415 23.4303 73.1932 24.4692 69.0989H28.8653C28.1322 72.3384 26.6498 74.7954 24.4225 76.4771C22.193 78.1587 19.3984 78.9995 16.0389 78.9995" fill="white"></path><path d="M44.9483 78.9972C42.1375 78.9972 39.6955 78.4086 37.6176 77.2338C35.5398 76.0567 33.9289 74.3984 32.7827 72.259C31.6387 70.1196 31.0667 67.5995 31.0667 64.6963C31.0667 61.7932 31.6317 59.2707 32.7616 57.1336C33.8916 54.9942 35.5025 53.3383 37.5943 52.1612C39.6861 50.984 42.1375 50.3954 44.9483 50.3954C47.7592 50.3954 50.2853 50.9747 52.3467 52.1355C54.4082 53.2963 56.0051 54.9475 57.135 57.0869C58.2626 59.2263 58.83 61.7628 58.83 64.6963C58.83 67.6298 58.2626 70.1266 57.135 72.28C56.0051 74.4358 54.4012 76.0917 52.3234 77.2548C50.2456 78.418 47.7872 78.9972 44.946 78.9972M44.9483 75.2392C47.9717 75.2392 50.325 74.3143 52.0035 72.4669C53.6821 70.6194 54.5226 68.0292 54.5226 64.6987C54.5226 61.3681 53.6821 58.7405 52.0035 56.9071C50.325 55.0736 47.9717 54.1581 44.9483 54.1581C41.925 54.1581 39.6114 55.0807 37.9165 56.9305C36.2215 58.7802 35.3741 61.3704 35.3741 64.701C35.3741 68.0316 36.2215 70.6217 37.9165 72.4692C39.6114 74.3167 41.9554 75.2416 44.9483 75.2416" fill="white"></path><path d="M62.7706 78.4485V55.5316H60.4803V50.9468H65.2453V55.0738H67.169C68.0842 53.5463 69.3752 52.3902 71.0398 51.6124C72.7044 50.8323 74.6071 50.4423 76.7433 50.4423C80.1938 50.4423 82.944 51.4489 84.9891 53.4692C87.0343 55.4848 88.0592 58.1755 88.0592 61.534V78.4461H83.7518V62.174C83.7518 59.5768 83.0421 57.5986 81.6226 56.2392C80.2032 54.8799 78.1324 54.2003 75.4149 54.2003C72.6974 54.2003 70.6639 54.8799 69.2305 56.2392C67.7947 57.5986 67.078 59.5768 67.078 62.174V78.4461H62.7729L62.7706 78.4485Z" fill="white"></path><path d="M98.689 78.4483C97.405 78.4483 96.4057 78.119 95.689 77.4627C94.9723 76.8064 94.6128 75.8208 94.6128 74.5058V54.2468H89.3435V50.9466H94.6595V42.6973H98.8734V50.9466H106.389V54.2468H98.9201V75.0547H107.122V78.4483H98.6913H98.689Z" fill="white"></path><path d="M112.524 78.4483V55.5314H110.234V50.9466H114.998V55.9892H116.922C117.716 54.3706 118.916 53.0931 120.52 52.1635C122.121 51.2293 124.024 50.7645 126.223 50.7645H128.469V54.4314H125.995C123.123 54.4314 120.877 55.2885 119.259 56.9982C117.639 58.7102 116.831 61.0318 116.831 63.9653V78.4483H112.524Z" fill="white"></path><path d="M139.372 78.9504C136.316 78.9504 133.904 78.1796 132.132 76.6358C130.36 75.0943 129.476 73.0997 129.476 70.6543C129.476 68.0268 130.337 65.9948 132.065 64.5584C133.79 63.122 136.288 62.405 139.557 62.405H149.453V61.1228C149.453 56.4165 146.934 54.0646 141.893 54.0646C137.801 54.0646 135.343 55.6224 134.518 58.7404H130.12C130.55 56.1129 131.824 54.0646 133.946 52.6002C136.071 51.1334 138.765 50.4 142.034 50.4C145.76 50.4 148.615 51.2922 150.602 53.0813C152.586 54.868 153.581 57.4442 153.581 60.8028V73.8658H155.689V78.4506H150.924V74.3236H149C148.052 75.7296 146.74 76.853 145.059 77.6915C143.378 78.5323 141.485 78.9527 139.379 78.9527M139.921 75.3769C141.662 75.3769 143.257 75.0102 144.709 74.2769C146.161 73.5435 147.312 72.5579 148.169 71.32C149.023 70.0821 149.451 68.7135 149.451 67.2187V65.7052H139.876C135.63 65.7052 133.508 67.2934 133.508 70.4722C133.508 71.9716 134.08 73.1604 135.226 74.048C136.372 74.9332 137.936 75.3746 139.921 75.3746" fill="white"></path><path d="M172.082 78.9972C169.302 78.9972 166.888 78.4086 164.843 77.2338C162.795 76.0567 161.215 74.3984 160.101 72.259C158.985 70.1196 158.429 67.5995 158.429 64.6963C158.429 61.7932 158.978 59.2707 160.078 57.1336C161.177 54.9942 162.751 53.3383 164.798 52.1611C166.846 50.984 169.274 50.3954 172.082 50.3954C175.351 50.3954 178.085 51.1989 180.284 52.8034C182.483 54.408 183.963 56.7506 184.727 59.8383H180.328C179.777 57.8834 178.815 56.4493 177.44 55.5314C176.065 54.6135 174.279 54.1557 172.08 54.1557C169.117 54.1557 166.818 55.0783 165.184 56.9281C163.549 58.7779 162.732 61.3681 162.732 64.6986C162.732 68.0292 163.549 70.5797 165.184 72.4458C166.818 74.3096 169.115 75.2415 172.08 75.2415C176.663 75.2415 179.471 73.1932 180.51 69.0989H184.906C184.173 72.3384 182.691 74.7954 180.464 76.4771C178.234 78.1587 175.439 78.9995 172.08 78.9995" fill="white"></path><path d="M194.898 78.4484C193.614 78.4484 192.615 78.1191 191.898 77.4628C191.182 76.8065 190.822 75.8208 190.822 74.5059V54.2469H185.553V50.9467H190.869V42.6973H195.083V50.9467H202.598V54.2469H195.129V75.0548H203.331V78.4484H194.901H194.898Z" fill="white"></path><path d="M209.74 46.822C208.976 46.822 208.327 46.5557 207.793 46.0209C207.258 45.486 206.992 44.8367 206.992 44.073C206.992 43.3092 207.26 42.6599 207.793 42.1251C208.327 41.5902 208.976 41.324 209.74 41.324C210.503 41.324 211.152 41.5926 211.687 42.1251C212.221 42.6599 212.49 43.3092 212.49 44.073C212.49 44.8367 212.221 45.486 211.687 46.0209C211.152 46.5557 210.505 46.822 209.74 46.822ZM207.587 50.9466H211.892V78.4483H207.587V50.9466Z" fill="white"></path><path d="M218.812 78.4485V55.5316H216.519V50.9468H221.284V55.0738H223.208C224.123 53.5463 225.414 52.3902 227.079 51.6124C228.743 50.8323 230.646 50.4423 232.784 50.4423C236.233 50.4423 238.983 51.4489 241.028 53.4692C243.073 55.4848 244.1 58.1755 244.1 61.534V78.4461H239.793V62.174C239.793 59.5768 239.083 57.5986 237.664 56.2392C236.244 54.8799 234.176 54.2003 231.456 54.2003C228.736 54.2003 226.705 54.8799 225.272 56.2392C223.836 57.5986 223.119 59.5768 223.119 62.174V78.4461H218.814L218.812 78.4485Z" fill="white"></path><path d="M261.008 89.9978C257.31 89.9978 254.303 89.2177 251.982 87.6599C249.662 86.1021 248.287 83.9486 247.857 81.1973H252.44C253.297 84.5582 256.152 86.2398 261.008 86.2398C264.031 86.2398 266.354 85.5205 267.97 84.0864C269.59 82.65 270.4 80.5877 270.4 77.8994V73.2236H270.174C269.471 74.8748 268.294 76.1571 266.644 77.0726C264.995 77.9905 263.069 78.4483 260.87 78.4483C258.244 78.4483 255.97 77.8737 254.046 76.7316C252.12 75.5825 250.638 73.9663 249.601 71.8712C248.562 69.7785 248.044 67.2958 248.044 64.423C248.044 60.1138 249.204 56.6992 251.525 54.1791C253.848 51.6589 256.992 50.3977 260.964 50.3977C263.163 50.3977 265.042 50.7948 266.599 51.5889C268.157 52.3853 269.394 53.5438 270.311 55.0736H272.237V50.9466H277V55.5314H274.71V78.2194C274.71 81.9167 273.51 84.8035 271.114 86.8821C268.717 88.9608 265.348 90.0002 261.013 90.0002M261.876 74.688C264.409 74.688 266.464 73.9406 268.037 72.4435C269.611 70.9463 270.395 68.9751 270.395 66.5297V62.3116C270.395 59.8686 269.609 57.8973 268.037 56.4002C266.464 54.9031 264.409 54.1534 261.876 54.1534C258.914 54.1534 256.586 55.0526 254.889 56.858C253.194 58.6611 252.347 61.1812 252.347 64.4207C252.347 67.6602 253.194 70.1803 254.889 71.9857C256.584 73.7888 258.914 74.688 261.876 74.688Z" fill="white"></path></svg> 